<mxfile host="app.diagrams.net" modified="2021-08-17T06:45:55.094Z" agent="5.0 (Macintosh; Intel Mac OS X 10_15_7) AppleWebKit/537.36 (KHTML, like Gecko) Chrome/93.0.4577.42 Safari/537.36" etag="CpyltGa7etvSawrdqtX9" version="14.9.6" type="github">
  <diagram id="y8ffQvfZyFvXcqCjuT4j" name="Page-1">
    <mxGraphModel dx="1186" dy="644" grid="1" gridSize="10" guides="1" tooltips="1" connect="1" arrows="1" fold="1" page="1" pageScale="1" pageWidth="827" pageHeight="1169" math="0" shadow="0">
      <root>
        <mxCell id="0" />
        <mxCell id="1" parent="0" />
        <mxCell id="3VOFI3xyr00BJqHR4OHi-3" value="" style="edgeStyle=orthogonalEdgeStyle;rounded=0;orthogonalLoop=1;jettySize=auto;html=1;" parent="1" source="3VOFI3xyr00BJqHR4OHi-1" target="3VOFI3xyr00BJqHR4OHi-2" edge="1">
          <mxGeometry relative="1" as="geometry" />
        </mxCell>
        <mxCell id="3VOFI3xyr00BJqHR4OHi-1" value="创建集群" style="rounded=0;whiteSpace=wrap;html=1;" parent="1" vertex="1">
          <mxGeometry x="354" y="60" width="120" height="60" as="geometry" />
        </mxCell>
        <mxCell id="3VOFI3xyr00BJqHR4OHi-5" value="" style="edgeStyle=orthogonalEdgeStyle;rounded=0;orthogonalLoop=1;jettySize=auto;html=1;" parent="1" source="3VOFI3xyr00BJqHR4OHi-2" target="3VOFI3xyr00BJqHR4OHi-4" edge="1">
          <mxGeometry relative="1" as="geometry" />
        </mxCell>
        <mxCell id="3VOFI3xyr00BJqHR4OHi-2" value="发起mop创建容器订单" style="whiteSpace=wrap;html=1;rounded=0;" parent="1" vertex="1">
          <mxGeometry x="354" y="150" width="120" height="60" as="geometry" />
        </mxCell>
        <mxCell id="3VOFI3xyr00BJqHR4OHi-9" value="" style="edgeStyle=orthogonalEdgeStyle;rounded=0;orthogonalLoop=1;jettySize=auto;html=1;" parent="1" source="3VOFI3xyr00BJqHR4OHi-4" target="3VOFI3xyr00BJqHR4OHi-8" edge="1">
          <mxGeometry relative="1" as="geometry" />
        </mxCell>
        <mxCell id="3VOFI3xyr00BJqHR4OHi-4" value="mysql存储集群及mop订单信息" style="whiteSpace=wrap;html=1;rounded=0;" parent="1" vertex="1">
          <mxGeometry x="354" y="240" width="120" height="60" as="geometry" />
        </mxCell>
        <mxCell id="_4t9wzK3EYPGccsk4x6P-3" value="" style="edgeStyle=orthogonalEdgeStyle;rounded=0;orthogonalLoop=1;jettySize=auto;html=1;" edge="1" parent="1" source="3VOFI3xyr00BJqHR4OHi-8" target="_4t9wzK3EYPGccsk4x6P-2">
          <mxGeometry relative="1" as="geometry" />
        </mxCell>
        <mxCell id="3VOFI3xyr00BJqHR4OHi-8" value="监听mq" style="whiteSpace=wrap;html=1;rounded=0;" parent="1" vertex="1">
          <mxGeometry x="354" y="320" width="120" height="60" as="geometry" />
        </mxCell>
        <mxCell id="3VOFI3xyr00BJqHR4OHi-17" value="" style="edgeStyle=orthogonalEdgeStyle;rounded=0;orthogonalLoop=1;jettySize=auto;html=1;" parent="1" source="3VOFI3xyr00BJqHR4OHi-10" target="3VOFI3xyr00BJqHR4OHi-16" edge="1">
          <mxGeometry relative="1" as="geometry" />
        </mxCell>
        <mxCell id="3VOFI3xyr00BJqHR4OHi-10" value="成功" style="whiteSpace=wrap;html=1;rounded=0;" parent="1" vertex="1">
          <mxGeometry x="259" y="560" width="120" height="60" as="geometry" />
        </mxCell>
        <mxCell id="3VOFI3xyr00BJqHR4OHi-15" value="" style="edgeStyle=orthogonalEdgeStyle;rounded=0;orthogonalLoop=1;jettySize=auto;html=1;" parent="1" source="3VOFI3xyr00BJqHR4OHi-12" target="3VOFI3xyr00BJqHR4OHi-14" edge="1">
          <mxGeometry relative="1" as="geometry" />
        </mxCell>
        <mxCell id="_4t9wzK3EYPGccsk4x6P-11" style="edgeStyle=orthogonalEdgeStyle;orthogonalLoop=1;jettySize=auto;html=1;entryX=0.5;entryY=1;entryDx=0;entryDy=0;rounded=0;startArrow=classic;startFill=1;endArrow=none;endFill=0;" edge="1" parent="1" source="3VOFI3xyr00BJqHR4OHi-12" target="_4t9wzK3EYPGccsk4x6P-2">
          <mxGeometry relative="1" as="geometry" />
        </mxCell>
        <mxCell id="3VOFI3xyr00BJqHR4OHi-12" value="失败" style="whiteSpace=wrap;html=1;rounded=0;" parent="1" vertex="1">
          <mxGeometry x="449" y="560" width="120" height="60" as="geometry" />
        </mxCell>
        <mxCell id="3VOFI3xyr00BJqHR4OHi-23" style="edgeStyle=orthogonalEdgeStyle;rounded=0;orthogonalLoop=1;jettySize=auto;html=1;entryX=0.5;entryY=0;entryDx=0;entryDy=0;" parent="1" source="3VOFI3xyr00BJqHR4OHi-14" target="3VOFI3xyr00BJqHR4OHi-16" edge="1">
          <mxGeometry relative="1" as="geometry" />
        </mxCell>
        <mxCell id="3VOFI3xyr00BJqHR4OHi-14" value="发起mop取消容器订单" style="whiteSpace=wrap;html=1;rounded=0;" parent="1" vertex="1">
          <mxGeometry x="449" y="650" width="120" height="60" as="geometry" />
        </mxCell>
        <mxCell id="3VOFI3xyr00BJqHR4OHi-16" value="记录消息处理状态" style="whiteSpace=wrap;html=1;rounded=0;" parent="1" vertex="1">
          <mxGeometry x="353" y="750" width="120" height="60" as="geometry" />
        </mxCell>
        <mxCell id="_4t9wzK3EYPGccsk4x6P-7" value="" style="edgeStyle=orthogonalEdgeStyle;rounded=0;orthogonalLoop=1;jettySize=auto;html=1;" edge="1" parent="1" source="_4t9wzK3EYPGccsk4x6P-2" target="_4t9wzK3EYPGccsk4x6P-6">
          <mxGeometry relative="1" as="geometry" />
        </mxCell>
        <mxCell id="_4t9wzK3EYPGccsk4x6P-10" style="edgeStyle=orthogonalEdgeStyle;rounded=0;orthogonalLoop=1;jettySize=auto;html=1;" edge="1" parent="1" source="_4t9wzK3EYPGccsk4x6P-2" target="3VOFI3xyr00BJqHR4OHi-10">
          <mxGeometry relative="1" as="geometry" />
        </mxCell>
        <mxCell id="_4t9wzK3EYPGccsk4x6P-2" value="创建集群" style="whiteSpace=wrap;html=1;rounded=0;" vertex="1" parent="1">
          <mxGeometry x="354" y="400" width="120" height="60" as="geometry" />
        </mxCell>
        <mxCell id="_4t9wzK3EYPGccsk4x6P-14" value="" style="edgeStyle=orthogonalEdgeStyle;rounded=0;orthogonalLoop=1;jettySize=auto;html=1;startArrow=none;startFill=0;endArrow=classic;endFill=1;" edge="1" parent="1" source="_4t9wzK3EYPGccsk4x6P-6" target="_4t9wzK3EYPGccsk4x6P-13">
          <mxGeometry relative="1" as="geometry" />
        </mxCell>
        <mxCell id="_4t9wzK3EYPGccsk4x6P-6" value="ecloudTemp【crd创建】" style="whiteSpace=wrap;html=1;rounded=0;" vertex="1" parent="1">
          <mxGeometry x="510" y="400" width="120" height="60" as="geometry" />
        </mxCell>
        <mxCell id="_4t9wzK3EYPGccsk4x6P-13" value="ecloudCluster【crd创建】" style="whiteSpace=wrap;html=1;rounded=0;" vertex="1" parent="1">
          <mxGeometry x="660" y="400" width="120" height="60" as="geometry" />
        </mxCell>
      </root>
    </mxGraphModel>
  </diagram>
</mxfile>
